<mxfile host="app.diagrams.net" modified="2024-03-23T23:39:15.270Z" agent="Mozilla/5.0 (Windows NT 10.0; Win64; x64) AppleWebKit/537.36 (KHTML, like Gecko) Chrome/122.0.0.0 Safari/537.36" etag="rDJndydmGXeTYerOKFmc" version="24.1.0" type="device">
  <diagram name="Page-1" id="lxX5e5ADlQ3Li2OKxEet">
    <mxGraphModel dx="1434" dy="738" grid="1" gridSize="10" guides="1" tooltips="1" connect="1" arrows="1" fold="1" page="1" pageScale="1" pageWidth="1100" pageHeight="850" background="#C2C2C2" math="0" shadow="1">
      <root>
        <mxCell id="0" />
        <mxCell id="1" parent="0" />
        <mxCell id="-WnEWqDzlTKxNY69MuBj-3" style="edgeStyle=orthogonalEdgeStyle;rounded=0;orthogonalLoop=1;jettySize=auto;html=1;" edge="1" parent="1" source="-WnEWqDzlTKxNY69MuBj-1" target="-WnEWqDzlTKxNY69MuBj-4">
          <mxGeometry relative="1" as="geometry">
            <mxPoint x="215" y="290" as="targetPoint" />
          </mxGeometry>
        </mxCell>
        <mxCell id="-WnEWqDzlTKxNY69MuBj-6" style="edgeStyle=orthogonalEdgeStyle;rounded=0;orthogonalLoop=1;jettySize=auto;html=1;" edge="1" parent="1" source="-WnEWqDzlTKxNY69MuBj-1" target="-WnEWqDzlTKxNY69MuBj-11">
          <mxGeometry relative="1" as="geometry">
            <mxPoint x="856" y="260" as="targetPoint" />
            <Array as="points">
              <mxPoint x="925" y="100" />
              <mxPoint x="925" y="295" />
            </Array>
          </mxGeometry>
        </mxCell>
        <mxCell id="-WnEWqDzlTKxNY69MuBj-16" style="edgeStyle=orthogonalEdgeStyle;rounded=0;orthogonalLoop=1;jettySize=auto;html=1;" edge="1" parent="1" source="-WnEWqDzlTKxNY69MuBj-1" target="-WnEWqDzlTKxNY69MuBj-13">
          <mxGeometry relative="1" as="geometry">
            <Array as="points">
              <mxPoint x="825" y="100" />
              <mxPoint x="825" y="297" />
            </Array>
          </mxGeometry>
        </mxCell>
        <mxCell id="-WnEWqDzlTKxNY69MuBj-17" style="edgeStyle=orthogonalEdgeStyle;rounded=0;orthogonalLoop=1;jettySize=auto;html=1;" edge="1" parent="1" source="-WnEWqDzlTKxNY69MuBj-1" target="-WnEWqDzlTKxNY69MuBj-15">
          <mxGeometry relative="1" as="geometry">
            <Array as="points">
              <mxPoint x="745" y="100" />
              <mxPoint x="745" y="297" />
            </Array>
          </mxGeometry>
        </mxCell>
        <mxCell id="-WnEWqDzlTKxNY69MuBj-22" style="edgeStyle=orthogonalEdgeStyle;rounded=0;orthogonalLoop=1;jettySize=auto;html=1;" edge="1" parent="1" source="-WnEWqDzlTKxNY69MuBj-1" target="-WnEWqDzlTKxNY69MuBj-20">
          <mxGeometry relative="1" as="geometry" />
        </mxCell>
        <mxCell id="-WnEWqDzlTKxNY69MuBj-1" value="" style="image;html=1;image=img/lib/clip_art/general/Full_Folder_128x128.png" vertex="1" parent="1">
          <mxGeometry x="505" y="60" width="80" height="80" as="geometry" />
        </mxCell>
        <mxCell id="-WnEWqDzlTKxNY69MuBj-2" value="&lt;font style=&quot;font-size: 14px;&quot;&gt;A21-flavor-voyage&lt;/font&gt;&lt;div&gt;&lt;br&gt;&lt;/div&gt;" style="text;html=1;align=center;verticalAlign=middle;whiteSpace=wrap;rounded=0;" vertex="1" parent="1">
          <mxGeometry x="465" y="40" width="140" height="30" as="geometry" />
        </mxCell>
        <mxCell id="-WnEWqDzlTKxNY69MuBj-26" style="edgeStyle=orthogonalEdgeStyle;rounded=0;orthogonalLoop=1;jettySize=auto;html=1;" edge="1" parent="1" source="-WnEWqDzlTKxNY69MuBj-4" target="-WnEWqDzlTKxNY69MuBj-25">
          <mxGeometry relative="1" as="geometry" />
        </mxCell>
        <mxCell id="-WnEWqDzlTKxNY69MuBj-27" value="" style="edgeStyle=orthogonalEdgeStyle;rounded=0;orthogonalLoop=1;jettySize=auto;html=1;" edge="1" parent="1" source="-WnEWqDzlTKxNY69MuBj-4" target="-WnEWqDzlTKxNY69MuBj-24">
          <mxGeometry relative="1" as="geometry">
            <Array as="points">
              <mxPoint x="259" y="292" />
            </Array>
          </mxGeometry>
        </mxCell>
        <mxCell id="-WnEWqDzlTKxNY69MuBj-33" style="edgeStyle=orthogonalEdgeStyle;rounded=0;orthogonalLoop=1;jettySize=auto;html=1;" edge="1" parent="1" source="-WnEWqDzlTKxNY69MuBj-4" target="-WnEWqDzlTKxNY69MuBj-31">
          <mxGeometry relative="1" as="geometry">
            <Array as="points">
              <mxPoint x="385" y="300" />
            </Array>
          </mxGeometry>
        </mxCell>
        <mxCell id="-WnEWqDzlTKxNY69MuBj-34" style="edgeStyle=orthogonalEdgeStyle;rounded=0;orthogonalLoop=1;jettySize=auto;html=1;" edge="1" parent="1" source="-WnEWqDzlTKxNY69MuBj-4" target="-WnEWqDzlTKxNY69MuBj-32">
          <mxGeometry relative="1" as="geometry" />
        </mxCell>
        <mxCell id="-WnEWqDzlTKxNY69MuBj-37" style="edgeStyle=orthogonalEdgeStyle;rounded=0;orthogonalLoop=1;jettySize=auto;html=1;" edge="1" parent="1" source="-WnEWqDzlTKxNY69MuBj-4" target="-WnEWqDzlTKxNY69MuBj-38">
          <mxGeometry relative="1" as="geometry">
            <mxPoint x="325" y="540" as="targetPoint" />
          </mxGeometry>
        </mxCell>
        <mxCell id="-WnEWqDzlTKxNY69MuBj-4" value="" style="image;html=1;image=img/lib/clip_art/general/Full_Folder_128x128.png" vertex="1" parent="1">
          <mxGeometry x="285" y="252" width="80" height="80" as="geometry" />
        </mxCell>
        <mxCell id="-WnEWqDzlTKxNY69MuBj-5" value="SRC&lt;div&gt;&lt;br&gt;&lt;/div&gt;" style="text;html=1;align=center;verticalAlign=middle;whiteSpace=wrap;rounded=0;rotation=-90;" vertex="1" parent="1">
          <mxGeometry x="285" y="170" width="60" height="30" as="geometry" />
        </mxCell>
        <mxCell id="-WnEWqDzlTKxNY69MuBj-10" value="&lt;font style=&quot;font-size: 14px;&quot;&gt;index.html&lt;/font&gt;" style="text;html=1;align=center;verticalAlign=middle;whiteSpace=wrap;rounded=0;rotation=-90;" vertex="1" parent="1">
          <mxGeometry x="885" y="160" width="60" height="30" as="geometry" />
        </mxCell>
        <mxCell id="-WnEWqDzlTKxNY69MuBj-11" value="" style="shape=image;html=1;verticalAlign=top;verticalLabelPosition=bottom;labelBackgroundColor=#ffffff;imageAspect=0;aspect=fixed;image=https://cdn1.iconfinder.com/data/icons/bootstrap-vol-3/16/filetype-html-128.png" vertex="1" parent="1">
          <mxGeometry x="905" y="260" width="50" height="50" as="geometry" />
        </mxCell>
        <mxCell id="-WnEWqDzlTKxNY69MuBj-13" value="" style="shape=image;html=1;verticalAlign=top;verticalLabelPosition=bottom;labelBackgroundColor=#ffffff;imageAspect=0;aspect=fixed;image=https://cdn4.iconfinder.com/data/icons/scripting-and-programming-languages/512/js-128.png" vertex="1" parent="1">
          <mxGeometry x="795" y="250" width="54" height="54" as="geometry" />
        </mxCell>
        <mxCell id="-WnEWqDzlTKxNY69MuBj-15" value="" style="shape=image;html=1;verticalAlign=top;verticalLabelPosition=bottom;labelBackgroundColor=#ffffff;imageAspect=0;aspect=fixed;image=https://cdn4.iconfinder.com/data/icons/scripting-and-programming-languages/512/js-128.png" vertex="1" parent="1">
          <mxGeometry x="715" y="250" width="54" height="54" as="geometry" />
        </mxCell>
        <mxCell id="-WnEWqDzlTKxNY69MuBj-18" value="&lt;font style=&quot;font-size: 14px;&quot;&gt;vite.config.js&lt;/font&gt;" style="text;html=1;align=center;verticalAlign=middle;whiteSpace=wrap;rounded=0;rotation=-90;" vertex="1" parent="1">
          <mxGeometry x="705" y="160" width="60" height="30" as="geometry" />
        </mxCell>
        <mxCell id="-WnEWqDzlTKxNY69MuBj-19" value="&lt;font style=&quot;font-size: 14px;&quot;&gt;tailwind.config.js&lt;/font&gt;&lt;div&gt;&lt;font style=&quot;font-size: 14px;&quot;&gt;&lt;br&gt;&lt;/font&gt;&lt;/div&gt;" style="text;html=1;align=center;verticalAlign=middle;whiteSpace=wrap;rounded=0;rotation=-90;" vertex="1" parent="1">
          <mxGeometry x="792" y="160" width="60" height="30" as="geometry" />
        </mxCell>
        <mxCell id="-WnEWqDzlTKxNY69MuBj-20" value="" style="dashed=0;outlineConnect=0;html=1;align=center;labelPosition=center;verticalLabelPosition=bottom;verticalAlign=top;shape=mxgraph.webicons.json;gradientColor=#DFDEDE" vertex="1" parent="1">
          <mxGeometry x="625" y="252" width="62.4" height="50" as="geometry" />
        </mxCell>
        <mxCell id="-WnEWqDzlTKxNY69MuBj-23" value="&lt;font style=&quot;font-size: 14px;&quot;&gt;package.json&lt;/font&gt;" style="text;html=1;align=center;verticalAlign=middle;whiteSpace=wrap;rounded=0;rotation=-90;" vertex="1" parent="1">
          <mxGeometry x="615" y="170" width="60" height="30" as="geometry" />
        </mxCell>
        <mxCell id="-WnEWqDzlTKxNY69MuBj-24" value="" style="shape=image;html=1;verticalAlign=top;verticalLabelPosition=bottom;labelBackgroundColor=#ffffff;imageAspect=0;aspect=fixed;image=https://cdn1.iconfinder.com/data/icons/bootstrap-vol-3/16/filetype-jsx-128.png" vertex="1" parent="1">
          <mxGeometry x="225" y="390" width="68" height="68" as="geometry" />
        </mxCell>
        <mxCell id="-WnEWqDzlTKxNY69MuBj-25" value="" style="shape=image;html=1;verticalAlign=top;verticalLabelPosition=bottom;labelBackgroundColor=#ffffff;imageAspect=0;aspect=fixed;image=https://cdn1.iconfinder.com/data/icons/bootstrap-vol-3/16/filetype-jsx-128.png" vertex="1" parent="1">
          <mxGeometry x="145" y="390" width="68" height="68" as="geometry" />
        </mxCell>
        <mxCell id="-WnEWqDzlTKxNY69MuBj-28" value="&lt;div&gt;main.jsx&lt;/div&gt;" style="text;html=1;align=center;verticalAlign=middle;whiteSpace=wrap;rounded=0;rotation=-90;" vertex="1" parent="1">
          <mxGeometry x="140" y="320" width="60" height="30" as="geometry" />
        </mxCell>
        <mxCell id="-WnEWqDzlTKxNY69MuBj-30" value="App.jsx" style="text;html=1;align=center;verticalAlign=middle;whiteSpace=wrap;rounded=0;rotation=-90;" vertex="1" parent="1">
          <mxGeometry x="215" y="332" width="60" height="30" as="geometry" />
        </mxCell>
        <mxCell id="-WnEWqDzlTKxNY69MuBj-31" value="" style="shape=image;html=1;verticalAlign=top;verticalLabelPosition=bottom;labelBackgroundColor=#ffffff;imageAspect=0;aspect=fixed;image=https://cdn2.iconfinder.com/data/icons/boxicons-solid-vol-2/24/bxs-file-css-128.png" vertex="1" parent="1">
          <mxGeometry x="345" y="384" width="80" height="80" as="geometry" />
        </mxCell>
        <mxCell id="-WnEWqDzlTKxNY69MuBj-32" value="" style="shape=image;html=1;verticalAlign=top;verticalLabelPosition=bottom;labelBackgroundColor=#ffffff;imageAspect=0;aspect=fixed;image=https://cdn2.iconfinder.com/data/icons/boxicons-solid-vol-2/24/bxs-file-css-128.png" vertex="1" parent="1">
          <mxGeometry x="425" y="384" width="80" height="80" as="geometry" />
        </mxCell>
        <mxCell id="-WnEWqDzlTKxNY69MuBj-35" value="main.css" style="text;html=1;align=center;verticalAlign=middle;whiteSpace=wrap;rounded=0;rotation=-90;" vertex="1" parent="1">
          <mxGeometry x="345" y="332" width="60" height="30" as="geometry" />
        </mxCell>
        <mxCell id="-WnEWqDzlTKxNY69MuBj-36" value="App.css" style="text;html=1;align=center;verticalAlign=middle;whiteSpace=wrap;rounded=0;rotation=-90;" vertex="1" parent="1">
          <mxGeometry x="425" y="332" width="60" height="30" as="geometry" />
        </mxCell>
        <mxCell id="-WnEWqDzlTKxNY69MuBj-48" style="edgeStyle=orthogonalEdgeStyle;rounded=0;orthogonalLoop=1;jettySize=auto;html=1;" edge="1" parent="1" source="-WnEWqDzlTKxNY69MuBj-38" target="-WnEWqDzlTKxNY69MuBj-40">
          <mxGeometry relative="1" as="geometry" />
        </mxCell>
        <mxCell id="-WnEWqDzlTKxNY69MuBj-49" style="edgeStyle=orthogonalEdgeStyle;rounded=0;orthogonalLoop=1;jettySize=auto;html=1;" edge="1" parent="1" source="-WnEWqDzlTKxNY69MuBj-38" target="-WnEWqDzlTKxNY69MuBj-41">
          <mxGeometry relative="1" as="geometry" />
        </mxCell>
        <mxCell id="-WnEWqDzlTKxNY69MuBj-50" style="edgeStyle=orthogonalEdgeStyle;rounded=0;orthogonalLoop=1;jettySize=auto;html=1;" edge="1" parent="1" source="-WnEWqDzlTKxNY69MuBj-38" target="-WnEWqDzlTKxNY69MuBj-42">
          <mxGeometry relative="1" as="geometry">
            <Array as="points">
              <mxPoint x="325" y="600" />
              <mxPoint x="325" y="600" />
            </Array>
          </mxGeometry>
        </mxCell>
        <mxCell id="-WnEWqDzlTKxNY69MuBj-51" style="edgeStyle=orthogonalEdgeStyle;rounded=0;orthogonalLoop=1;jettySize=auto;html=1;" edge="1" parent="1" source="-WnEWqDzlTKxNY69MuBj-38" target="-WnEWqDzlTKxNY69MuBj-43">
          <mxGeometry relative="1" as="geometry" />
        </mxCell>
        <mxCell id="-WnEWqDzlTKxNY69MuBj-52" style="edgeStyle=orthogonalEdgeStyle;rounded=0;orthogonalLoop=1;jettySize=auto;html=1;" edge="1" parent="1" source="-WnEWqDzlTKxNY69MuBj-38" target="-WnEWqDzlTKxNY69MuBj-44">
          <mxGeometry relative="1" as="geometry" />
        </mxCell>
        <mxCell id="-WnEWqDzlTKxNY69MuBj-54" style="edgeStyle=orthogonalEdgeStyle;rounded=0;orthogonalLoop=1;jettySize=auto;html=1;" edge="1" parent="1" source="-WnEWqDzlTKxNY69MuBj-38" target="-WnEWqDzlTKxNY69MuBj-46">
          <mxGeometry relative="1" as="geometry" />
        </mxCell>
        <mxCell id="-WnEWqDzlTKxNY69MuBj-110" style="edgeStyle=orthogonalEdgeStyle;rounded=0;orthogonalLoop=1;jettySize=auto;html=1;" edge="1" parent="1" source="-WnEWqDzlTKxNY69MuBj-38" target="-WnEWqDzlTKxNY69MuBj-109">
          <mxGeometry relative="1" as="geometry" />
        </mxCell>
        <mxCell id="-WnEWqDzlTKxNY69MuBj-38" value="" style="image;html=1;image=img/lib/clip_art/general/Full_Folder_128x128.png" vertex="1" parent="1">
          <mxGeometry x="285" y="480" width="80" height="80" as="geometry" />
        </mxCell>
        <mxCell id="-WnEWqDzlTKxNY69MuBj-39" value="components" style="text;html=1;align=center;verticalAlign=middle;whiteSpace=wrap;rounded=0;rotation=-90;" vertex="1" parent="1">
          <mxGeometry x="285" y="380" width="60" height="30" as="geometry" />
        </mxCell>
        <mxCell id="-WnEWqDzlTKxNY69MuBj-63" style="edgeStyle=orthogonalEdgeStyle;rounded=0;orthogonalLoop=1;jettySize=auto;html=1;" edge="1" parent="1" source="-WnEWqDzlTKxNY69MuBj-40" target="-WnEWqDzlTKxNY69MuBj-62">
          <mxGeometry relative="1" as="geometry" />
        </mxCell>
        <mxCell id="-WnEWqDzlTKxNY69MuBj-40" value="" style="image;html=1;image=img/lib/clip_art/general/Full_Folder_128x128.png" vertex="1" parent="1">
          <mxGeometry x="50" y="600" width="80" height="80" as="geometry" />
        </mxCell>
        <mxCell id="-WnEWqDzlTKxNY69MuBj-41" value="" style="image;html=1;image=img/lib/clip_art/general/Full_Folder_128x128.png" vertex="1" parent="1">
          <mxGeometry x="180" y="600" width="80" height="80" as="geometry" />
        </mxCell>
        <mxCell id="-WnEWqDzlTKxNY69MuBj-42" value="" style="image;html=1;image=img/lib/clip_art/general/Full_Folder_128x128.png" vertex="1" parent="1">
          <mxGeometry x="293" y="600" width="80" height="80" as="geometry" />
        </mxCell>
        <mxCell id="-WnEWqDzlTKxNY69MuBj-81" style="edgeStyle=orthogonalEdgeStyle;rounded=0;orthogonalLoop=1;jettySize=auto;html=1;" edge="1" parent="1" source="-WnEWqDzlTKxNY69MuBj-43" target="-WnEWqDzlTKxNY69MuBj-78">
          <mxGeometry relative="1" as="geometry">
            <Array as="points">
              <mxPoint x="480" y="700" />
              <mxPoint x="507" y="700" />
            </Array>
          </mxGeometry>
        </mxCell>
        <mxCell id="-WnEWqDzlTKxNY69MuBj-108" style="edgeStyle=orthogonalEdgeStyle;rounded=0;orthogonalLoop=1;jettySize=auto;html=1;" edge="1" parent="1" source="-WnEWqDzlTKxNY69MuBj-43" target="-WnEWqDzlTKxNY69MuBj-76">
          <mxGeometry relative="1" as="geometry">
            <Array as="points">
              <mxPoint x="480" y="700" />
              <mxPoint x="442" y="700" />
            </Array>
          </mxGeometry>
        </mxCell>
        <mxCell id="-WnEWqDzlTKxNY69MuBj-43" value="" style="image;html=1;image=img/lib/clip_art/general/Full_Folder_128x128.png" vertex="1" parent="1">
          <mxGeometry x="440" y="600" width="80" height="80" as="geometry" />
        </mxCell>
        <mxCell id="-WnEWqDzlTKxNY69MuBj-87" style="edgeStyle=orthogonalEdgeStyle;rounded=0;orthogonalLoop=1;jettySize=auto;html=1;" edge="1" parent="1" source="-WnEWqDzlTKxNY69MuBj-44" target="-WnEWqDzlTKxNY69MuBj-91">
          <mxGeometry relative="1" as="geometry">
            <mxPoint x="670" y="780" as="targetPoint" />
          </mxGeometry>
        </mxCell>
        <mxCell id="-WnEWqDzlTKxNY69MuBj-44" value="" style="image;html=1;image=img/lib/clip_art/general/Full_Folder_128x128.png" vertex="1" parent="1">
          <mxGeometry x="550" y="600" width="80" height="80" as="geometry" />
        </mxCell>
        <mxCell id="-WnEWqDzlTKxNY69MuBj-45" value="" style="image;html=1;image=img/lib/clip_art/general/Full_Folder_128x128.png" vertex="1" parent="1">
          <mxGeometry x="715" y="600" width="80" height="80" as="geometry" />
        </mxCell>
        <mxCell id="-WnEWqDzlTKxNY69MuBj-99" style="edgeStyle=orthogonalEdgeStyle;rounded=0;orthogonalLoop=1;jettySize=auto;html=1;" edge="1" parent="1" source="-WnEWqDzlTKxNY69MuBj-46" target="-WnEWqDzlTKxNY69MuBj-97">
          <mxGeometry relative="1" as="geometry">
            <Array as="points">
              <mxPoint x="910" y="770" />
              <mxPoint x="912" y="770" />
            </Array>
          </mxGeometry>
        </mxCell>
        <mxCell id="-WnEWqDzlTKxNY69MuBj-106" style="edgeStyle=orthogonalEdgeStyle;rounded=0;orthogonalLoop=1;jettySize=auto;html=1;" edge="1" parent="1" source="-WnEWqDzlTKxNY69MuBj-46" target="-WnEWqDzlTKxNY69MuBj-104">
          <mxGeometry relative="1" as="geometry">
            <Array as="points">
              <mxPoint x="910" y="720" />
              <mxPoint x="843" y="720" />
            </Array>
          </mxGeometry>
        </mxCell>
        <mxCell id="-WnEWqDzlTKxNY69MuBj-107" style="edgeStyle=orthogonalEdgeStyle;rounded=0;orthogonalLoop=1;jettySize=auto;html=1;" edge="1" parent="1" source="-WnEWqDzlTKxNY69MuBj-46" target="-WnEWqDzlTKxNY69MuBj-102">
          <mxGeometry relative="1" as="geometry">
            <Array as="points">
              <mxPoint x="910" y="720" />
              <mxPoint x="982" y="720" />
            </Array>
          </mxGeometry>
        </mxCell>
        <mxCell id="-WnEWqDzlTKxNY69MuBj-46" value="" style="image;html=1;image=img/lib/clip_art/general/Full_Folder_128x128.png" vertex="1" parent="1">
          <mxGeometry x="870" y="610" width="80" height="80" as="geometry" />
        </mxCell>
        <mxCell id="-WnEWqDzlTKxNY69MuBj-53" style="edgeStyle=orthogonalEdgeStyle;rounded=0;orthogonalLoop=1;jettySize=auto;html=1;entryX=0.338;entryY=-0.037;entryDx=0;entryDy=0;entryPerimeter=0;" edge="1" parent="1" source="-WnEWqDzlTKxNY69MuBj-38" target="-WnEWqDzlTKxNY69MuBj-45">
          <mxGeometry relative="1" as="geometry" />
        </mxCell>
        <mxCell id="-WnEWqDzlTKxNY69MuBj-55" value="&lt;div&gt;about&lt;/div&gt;" style="text;html=1;align=center;verticalAlign=middle;whiteSpace=wrap;rounded=0;rotation=-90;" vertex="1" parent="1">
          <mxGeometry x="50" y="560" width="60" height="30" as="geometry" />
        </mxCell>
        <mxCell id="-WnEWqDzlTKxNY69MuBj-56" value="admin" style="text;html=1;align=center;verticalAlign=middle;whiteSpace=wrap;rounded=0;rotation=-90;" vertex="1" parent="1">
          <mxGeometry x="180" y="560" width="60" height="30" as="geometry" />
        </mxCell>
        <mxCell id="-WnEWqDzlTKxNY69MuBj-57" value="&lt;div&gt;hero&lt;/div&gt;" style="text;html=1;align=center;verticalAlign=middle;whiteSpace=wrap;rounded=0;rotation=-90;" vertex="1" parent="1">
          <mxGeometry x="270" y="570" width="60" height="30" as="geometry" />
        </mxCell>
        <mxCell id="-WnEWqDzlTKxNY69MuBj-58" value="&lt;div&gt;location&lt;/div&gt;" style="text;html=1;align=center;verticalAlign=middle;whiteSpace=wrap;rounded=0;rotation=-90;" vertex="1" parent="1">
          <mxGeometry x="435" y="560" width="60" height="30" as="geometry" />
        </mxCell>
        <mxCell id="-WnEWqDzlTKxNY69MuBj-59" value="&lt;div&gt;menuItems&lt;/div&gt;" style="text;html=1;align=center;verticalAlign=middle;whiteSpace=wrap;rounded=0;rotation=-90;" vertex="1" parent="1">
          <mxGeometry x="550" y="560" width="60" height="30" as="geometry" />
        </mxCell>
        <mxCell id="-WnEWqDzlTKxNY69MuBj-60" value="&lt;div&gt;navbar&lt;/div&gt;" style="text;html=1;align=center;verticalAlign=middle;whiteSpace=wrap;rounded=0;rotation=-90;" vertex="1" parent="1">
          <mxGeometry x="705" y="550" width="60" height="30" as="geometry" />
        </mxCell>
        <mxCell id="-WnEWqDzlTKxNY69MuBj-61" value="&lt;div&gt;reservations&lt;/div&gt;" style="text;html=1;align=center;verticalAlign=middle;whiteSpace=wrap;rounded=0;rotation=-90;" vertex="1" parent="1">
          <mxGeometry x="870" y="550" width="60" height="30" as="geometry" />
        </mxCell>
        <mxCell id="-WnEWqDzlTKxNY69MuBj-62" value="" style="shape=image;html=1;verticalAlign=top;verticalLabelPosition=bottom;labelBackgroundColor=#ffffff;imageAspect=0;aspect=fixed;image=https://cdn1.iconfinder.com/data/icons/bootstrap-vol-3/16/filetype-jsx-128.png" vertex="1" parent="1">
          <mxGeometry x="58" y="852" width="68" height="68" as="geometry" />
        </mxCell>
        <mxCell id="-WnEWqDzlTKxNY69MuBj-64" value="&lt;div&gt;AboutUsSection.jsx&lt;/div&gt;" style="text;html=1;align=center;verticalAlign=middle;whiteSpace=wrap;rounded=0;rotation=-90;" vertex="1" parent="1">
          <mxGeometry x="52" y="780" width="60" height="30" as="geometry" />
        </mxCell>
        <mxCell id="-WnEWqDzlTKxNY69MuBj-65" style="edgeStyle=orthogonalEdgeStyle;rounded=0;orthogonalLoop=1;jettySize=auto;html=1;" edge="1" parent="1" target="-WnEWqDzlTKxNY69MuBj-66" source="-WnEWqDzlTKxNY69MuBj-41">
          <mxGeometry relative="1" as="geometry">
            <mxPoint x="185" y="680" as="sourcePoint" />
            <Array as="points">
              <mxPoint x="220" y="700" />
              <mxPoint x="187" y="700" />
            </Array>
          </mxGeometry>
        </mxCell>
        <mxCell id="-WnEWqDzlTKxNY69MuBj-66" value="" style="shape=image;html=1;verticalAlign=top;verticalLabelPosition=bottom;labelBackgroundColor=#ffffff;imageAspect=0;aspect=fixed;image=https://cdn1.iconfinder.com/data/icons/bootstrap-vol-3/16/filetype-jsx-128.png" vertex="1" parent="1">
          <mxGeometry x="153" y="852" width="68" height="68" as="geometry" />
        </mxCell>
        <mxCell id="-WnEWqDzlTKxNY69MuBj-67" value="&lt;div&gt;AdminLogin.jsx&lt;/div&gt;" style="text;html=1;align=center;verticalAlign=middle;whiteSpace=wrap;rounded=0;rotation=-90;" vertex="1" parent="1">
          <mxGeometry x="147" y="780" width="60" height="30" as="geometry" />
        </mxCell>
        <mxCell id="-WnEWqDzlTKxNY69MuBj-68" style="edgeStyle=orthogonalEdgeStyle;rounded=0;orthogonalLoop=1;jettySize=auto;html=1;" edge="1" parent="1" target="-WnEWqDzlTKxNY69MuBj-69" source="-WnEWqDzlTKxNY69MuBj-41">
          <mxGeometry relative="1" as="geometry">
            <mxPoint x="251" y="680" as="sourcePoint" />
            <Array as="points">
              <mxPoint x="220" y="700" />
              <mxPoint x="253" y="700" />
            </Array>
          </mxGeometry>
        </mxCell>
        <mxCell id="-WnEWqDzlTKxNY69MuBj-69" value="" style="shape=image;html=1;verticalAlign=top;verticalLabelPosition=bottom;labelBackgroundColor=#ffffff;imageAspect=0;aspect=fixed;image=https://cdn1.iconfinder.com/data/icons/bootstrap-vol-3/16/filetype-jsx-128.png" vertex="1" parent="1">
          <mxGeometry x="219" y="852" width="68" height="68" as="geometry" />
        </mxCell>
        <mxCell id="-WnEWqDzlTKxNY69MuBj-70" value="&lt;div&gt;AdminDashboard.jsx&lt;/div&gt;" style="text;html=1;align=center;verticalAlign=middle;whiteSpace=wrap;rounded=0;rotation=-90;" vertex="1" parent="1">
          <mxGeometry x="235" y="780" width="60" height="30" as="geometry" />
        </mxCell>
        <mxCell id="-WnEWqDzlTKxNY69MuBj-71" value="HeroSection.jsx" style="text;html=1;align=center;verticalAlign=middle;whiteSpace=wrap;rounded=0;rotation=-90;" vertex="1" parent="1">
          <mxGeometry x="307" y="780" width="60" height="30" as="geometry" />
        </mxCell>
        <mxCell id="-WnEWqDzlTKxNY69MuBj-72" style="edgeStyle=orthogonalEdgeStyle;rounded=0;orthogonalLoop=1;jettySize=auto;html=1;" edge="1" parent="1" target="-WnEWqDzlTKxNY69MuBj-73">
          <mxGeometry relative="1" as="geometry">
            <mxPoint x="348" y="670" as="sourcePoint" />
            <mxPoint x="349" y="770" as="targetPoint" />
            <Array as="points">
              <mxPoint x="348" y="680" />
              <mxPoint x="349" y="680" />
            </Array>
          </mxGeometry>
        </mxCell>
        <mxCell id="-WnEWqDzlTKxNY69MuBj-73" value="" style="shape=image;html=1;verticalAlign=top;verticalLabelPosition=bottom;labelBackgroundColor=#ffffff;imageAspect=0;aspect=fixed;image=https://cdn1.iconfinder.com/data/icons/bootstrap-vol-3/16/filetype-jsx-128.png" vertex="1" parent="1">
          <mxGeometry x="322" y="852" width="68" height="68" as="geometry" />
        </mxCell>
        <mxCell id="-WnEWqDzlTKxNY69MuBj-76" value="" style="shape=image;html=1;verticalAlign=top;verticalLabelPosition=bottom;labelBackgroundColor=#ffffff;imageAspect=0;aspect=fixed;image=https://cdn1.iconfinder.com/data/icons/bootstrap-vol-3/16/filetype-jsx-128.png" vertex="1" parent="1">
          <mxGeometry x="408" y="852" width="68" height="68" as="geometry" />
        </mxCell>
        <mxCell id="-WnEWqDzlTKxNY69MuBj-77" value="&lt;div&gt;LocationMap.jsx&lt;/div&gt;" style="text;html=1;align=center;verticalAlign=middle;whiteSpace=wrap;rounded=0;rotation=-90;" vertex="1" parent="1">
          <mxGeometry x="402" y="780" width="60" height="30" as="geometry" />
        </mxCell>
        <mxCell id="-WnEWqDzlTKxNY69MuBj-78" value="" style="shape=image;html=1;verticalAlign=top;verticalLabelPosition=bottom;labelBackgroundColor=#ffffff;imageAspect=0;aspect=fixed;image=https://cdn1.iconfinder.com/data/icons/bootstrap-vol-3/16/filetype-jsx-128.png" vertex="1" parent="1">
          <mxGeometry x="473" y="852" width="68" height="68" as="geometry" />
        </mxCell>
        <mxCell id="-WnEWqDzlTKxNY69MuBj-79" value="&lt;div&gt;LocationSection.jsx&lt;/div&gt;" style="text;html=1;align=center;verticalAlign=middle;whiteSpace=wrap;rounded=0;rotation=-90;" vertex="1" parent="1">
          <mxGeometry x="487" y="780" width="60" height="30" as="geometry" />
        </mxCell>
        <mxCell id="-WnEWqDzlTKxNY69MuBj-82" style="edgeStyle=orthogonalEdgeStyle;rounded=0;orthogonalLoop=1;jettySize=auto;html=1;" edge="1" parent="1" source="-WnEWqDzlTKxNY69MuBj-44" target="-WnEWqDzlTKxNY69MuBj-89">
          <mxGeometry relative="1" as="geometry">
            <mxPoint x="597" y="690" as="sourcePoint" />
            <mxPoint x="562" y="792" as="targetPoint" />
          </mxGeometry>
        </mxCell>
        <mxCell id="-WnEWqDzlTKxNY69MuBj-83" value="&lt;div&gt;Dishes.jsx&lt;/div&gt;" style="text;html=1;align=center;verticalAlign=middle;whiteSpace=wrap;rounded=0;rotation=-90;" vertex="1" parent="1">
          <mxGeometry x="532" y="800" width="60" height="30" as="geometry" />
        </mxCell>
        <mxCell id="-WnEWqDzlTKxNY69MuBj-84" style="edgeStyle=orthogonalEdgeStyle;rounded=0;orthogonalLoop=1;jettySize=auto;html=1;" edge="1" parent="1" source="-WnEWqDzlTKxNY69MuBj-44" target="-WnEWqDzlTKxNY69MuBj-90">
          <mxGeometry relative="1" as="geometry">
            <mxPoint x="597" y="690" as="sourcePoint" />
            <mxPoint x="628" y="792" as="targetPoint" />
          </mxGeometry>
        </mxCell>
        <mxCell id="-WnEWqDzlTKxNY69MuBj-85" value="&lt;div&gt;Alcohol.jsx&lt;/div&gt;" style="text;html=1;align=center;verticalAlign=middle;whiteSpace=wrap;rounded=0;rotation=-90;" vertex="1" parent="1">
          <mxGeometry x="617" y="800" width="60" height="30" as="geometry" />
        </mxCell>
        <mxCell id="-WnEWqDzlTKxNY69MuBj-88" value="&lt;div&gt;Drinks.jsx&lt;/div&gt;" style="text;html=1;align=center;verticalAlign=middle;whiteSpace=wrap;rounded=0;rotation=-90;" vertex="1" parent="1">
          <mxGeometry x="657" y="790" width="60" height="30" as="geometry" />
        </mxCell>
        <mxCell id="-WnEWqDzlTKxNY69MuBj-89" value="" style="shape=image;html=1;verticalAlign=top;verticalLabelPosition=bottom;labelBackgroundColor=#ffffff;imageAspect=0;aspect=fixed;image=https://cdn1.iconfinder.com/data/icons/bootstrap-vol-3/16/filetype-jsx-128.png" vertex="1" parent="1">
          <mxGeometry x="541" y="852" width="68" height="68" as="geometry" />
        </mxCell>
        <mxCell id="-WnEWqDzlTKxNY69MuBj-90" value="" style="shape=image;html=1;verticalAlign=top;verticalLabelPosition=bottom;labelBackgroundColor=#ffffff;imageAspect=0;aspect=fixed;image=https://cdn1.iconfinder.com/data/icons/bootstrap-vol-3/16/filetype-jsx-128.png" vertex="1" parent="1">
          <mxGeometry x="603" y="852" width="68" height="68" as="geometry" />
        </mxCell>
        <mxCell id="-WnEWqDzlTKxNY69MuBj-91" value="" style="shape=image;html=1;verticalAlign=top;verticalLabelPosition=bottom;labelBackgroundColor=#ffffff;imageAspect=0;aspect=fixed;image=https://cdn1.iconfinder.com/data/icons/bootstrap-vol-3/16/filetype-jsx-128.png" vertex="1" parent="1">
          <mxGeometry x="667" y="852" width="68" height="68" as="geometry" />
        </mxCell>
        <mxCell id="-WnEWqDzlTKxNY69MuBj-93" value="" style="shape=image;html=1;verticalAlign=top;verticalLabelPosition=bottom;labelBackgroundColor=#ffffff;imageAspect=0;aspect=fixed;image=https://cdn1.iconfinder.com/data/icons/bootstrap-vol-3/16/filetype-jsx-128.png" vertex="1" parent="1">
          <mxGeometry x="735" y="848" width="68" height="68" as="geometry" />
        </mxCell>
        <mxCell id="-WnEWqDzlTKxNY69MuBj-94" style="edgeStyle=orthogonalEdgeStyle;rounded=0;orthogonalLoop=1;jettySize=auto;html=1;entryX=0.324;entryY=0.118;entryDx=0;entryDy=0;entryPerimeter=0;" edge="1" parent="1" source="-WnEWqDzlTKxNY69MuBj-45" target="-WnEWqDzlTKxNY69MuBj-93">
          <mxGeometry relative="1" as="geometry">
            <Array as="points">
              <mxPoint x="760" y="766" />
              <mxPoint x="757" y="766" />
            </Array>
          </mxGeometry>
        </mxCell>
        <mxCell id="-WnEWqDzlTKxNY69MuBj-95" value="&lt;div&gt;NavBar.jsx&lt;/div&gt;" style="text;html=1;align=center;verticalAlign=middle;whiteSpace=wrap;rounded=0;rotation=-90;" vertex="1" parent="1">
          <mxGeometry x="712" y="790" width="70" height="30" as="geometry" />
        </mxCell>
        <mxCell id="-WnEWqDzlTKxNY69MuBj-97" value="" style="shape=image;html=1;verticalAlign=top;verticalLabelPosition=bottom;labelBackgroundColor=#ffffff;imageAspect=0;aspect=fixed;image=https://cdn1.iconfinder.com/data/icons/bootstrap-vol-3/16/filetype-jsx-128.png" vertex="1" parent="1">
          <mxGeometry x="876" y="850" width="72" height="72" as="geometry" />
        </mxCell>
        <mxCell id="-WnEWqDzlTKxNY69MuBj-98" value="&lt;div&gt;ReservationFields.jsx&lt;/div&gt;" style="text;html=1;align=center;verticalAlign=middle;whiteSpace=wrap;rounded=0;rotation=-90;" vertex="1" parent="1">
          <mxGeometry x="865" y="770" width="70" height="30" as="geometry" />
        </mxCell>
        <mxCell id="-WnEWqDzlTKxNY69MuBj-102" value="" style="shape=image;html=1;verticalAlign=top;verticalLabelPosition=bottom;labelBackgroundColor=#ffffff;imageAspect=0;aspect=fixed;image=https://cdn1.iconfinder.com/data/icons/bootstrap-vol-3/16/filetype-jsx-128.png" vertex="1" parent="1">
          <mxGeometry x="946" y="850" width="72" height="72" as="geometry" />
        </mxCell>
        <mxCell id="-WnEWqDzlTKxNY69MuBj-103" value="&lt;div&gt;ReservationsForm.jsx&lt;/div&gt;" style="text;html=1;align=center;verticalAlign=middle;whiteSpace=wrap;rounded=0;rotation=-90;" vertex="1" parent="1">
          <mxGeometry x="935" y="770" width="70" height="30" as="geometry" />
        </mxCell>
        <mxCell id="-WnEWqDzlTKxNY69MuBj-104" value="" style="shape=image;html=1;verticalAlign=top;verticalLabelPosition=bottom;labelBackgroundColor=#ffffff;imageAspect=0;aspect=fixed;image=https://cdn1.iconfinder.com/data/icons/bootstrap-vol-3/16/filetype-jsx-128.png" vertex="1" parent="1">
          <mxGeometry x="807" y="848" width="72" height="72" as="geometry" />
        </mxCell>
        <mxCell id="-WnEWqDzlTKxNY69MuBj-105" value="&lt;div&gt;PrivateEventsForm.jsx&lt;/div&gt;" style="text;html=1;align=center;verticalAlign=middle;whiteSpace=wrap;rounded=0;rotation=-90;" vertex="1" parent="1">
          <mxGeometry x="800" y="770" width="70" height="30" as="geometry" />
        </mxCell>
        <mxCell id="-WnEWqDzlTKxNY69MuBj-109" value="" style="shape=image;html=1;verticalAlign=top;verticalLabelPosition=bottom;labelBackgroundColor=#ffffff;imageAspect=0;aspect=fixed;image=https://cdn1.iconfinder.com/data/icons/bootstrap-vol-3/16/filetype-jsx-128.png" vertex="1" parent="1">
          <mxGeometry x="1018" y="850" width="72" height="72" as="geometry" />
        </mxCell>
        <mxCell id="-WnEWqDzlTKxNY69MuBj-111" value="CustomAlertModal.jsx" style="text;html=1;align=center;verticalAlign=middle;whiteSpace=wrap;rounded=0;rotation=-90;" vertex="1" parent="1">
          <mxGeometry x="1010" y="760" width="70" height="30" as="geometry" />
        </mxCell>
      </root>
    </mxGraphModel>
  </diagram>
</mxfile>
